<svg width="104" height="104" viewBox="0 0 104 104" fill="none" xmlns="http://www.w3.org/2000/svg">
<g filter="url(#filter0_dddi_89_325)">
<circle cx="52" cy="52" r="40" fill="#3B6DFF"/>
<circle cx="52" cy="52" r="39.5" stroke="#86CDC4"/>
</g>
<path d="M62.72 44.7297L55.04 39.5713C52.9467 38.1633 49.7333 38.2401 47.72 39.7377L41.04 44.7425C39.7067 45.7409 38.6533 47.7889 38.6533 49.4017V58.2337C38.6533 61.4977 41.4133 64.1601 44.8133 64.1601H59.1867C62.5867 64.1601 65.3467 61.5105 65.3467 58.2465V49.5681C65.3467 47.8401 64.1867 45.7153 62.72 44.7297ZM53 59.0401C53 59.5649 52.5467 60.0001 52 60.0001C51.4533 60.0001 51 59.5649 51 59.0401V55.2001C51 54.6753 51.4533 54.2401 52 54.2401C52.5467 54.2401 53 54.6753 53 55.2001V59.0401Z" fill="white"/>
<defs>
<filter id="filter0_dddi_89_325" x="0" y="0" width="104" height="104" filterUnits="userSpaceOnUse" color-interpolation-filters="sRGB">
<feFlood flood-opacity="0" result="BackgroundImageFix"/>
<feColorMatrix in="SourceAlpha" type="matrix" values="0 0 0 0 0 0 0 0 0 0 0 0 0 0 0 0 0 0 127 0" result="hardAlpha"/>
<feMorphology radius="6" operator="dilate" in="SourceAlpha" result="effect1_dropShadow_89_325"/>
<feOffset/>
<feComposite in2="hardAlpha" operator="out"/>
<feColorMatrix type="matrix" values="0 0 0 0 0.231373 0 0 0 0 0.427451 0 0 0 0 1 0 0 0 0.1 0"/>
<feBlend mode="normal" in2="BackgroundImageFix" result="effect1_dropShadow_89_325"/>
<feColorMatrix in="SourceAlpha" type="matrix" values="0 0 0 0 0 0 0 0 0 0 0 0 0 0 0 0 0 0 127 0" result="hardAlpha"/>
<feMorphology radius="12" operator="dilate" in="SourceAlpha" result="effect2_dropShadow_89_325"/>
<feOffset/>
<feComposite in2="hardAlpha" operator="out"/>
<feColorMatrix type="matrix" values="0 0 0 0 0.231373 0 0 0 0 0.427451 0 0 0 0 1 0 0 0 0.05 0"/>
<feBlend mode="normal" in2="effect1_dropShadow_89_325" result="effect2_dropShadow_89_325"/>
<feColorMatrix in="SourceAlpha" type="matrix" values="0 0 0 0 0 0 0 0 0 0 0 0 0 0 0 0 0 0 127 0" result="hardAlpha"/>
<feMorphology radius="2" operator="dilate" in="SourceAlpha" result="effect3_dropShadow_89_325"/>
<feOffset/>
<feComposite in2="hardAlpha" operator="out"/>
<feColorMatrix type="matrix" values="0 0 0 0 0.231373 0 0 0 0 0.427451 0 0 0 0 1 0 0 0 1 0"/>
<feBlend mode="normal" in2="effect2_dropShadow_89_325" result="effect3_dropShadow_89_325"/>
<feBlend mode="normal" in="SourceGraphic" in2="effect3_dropShadow_89_325" result="shape"/>
<feColorMatrix in="SourceAlpha" type="matrix" values="0 0 0 0 0 0 0 0 0 0 0 0 0 0 0 0 0 0 127 0" result="hardAlpha"/>
<feOffset dy="4"/>
<feGaussianBlur stdDeviation="6.25"/>
<feComposite in2="hardAlpha" operator="arithmetic" k2="-1" k3="1"/>
<feColorMatrix type="matrix" values="0 0 0 0 0.231373 0 0 0 0 0.427451 0 0 0 0 1 0 0 0 0.6 0"/>
<feBlend mode="normal" in2="shape" result="effect4_innerShadow_89_325"/>
</filter>
</defs>
</svg>
