<svg width="24" height="24" viewBox="0 0 24 24" fill="none" xmlns="http://www.w3.org/2000/svg">
<path d="M18.7482 6.00024V15.7502C18.7482 15.9492 18.6692 16.1399 18.5286 16.2806C18.3879 16.4212 18.1971 16.5002 17.9982 16.5002C17.7993 16.5002 17.6085 16.4212 17.4679 16.2806C17.3272 16.1399 17.2482 15.9492 17.2482 15.7502V7.81056L6.52885 18.5309C6.38811 18.6716 6.19724 18.7507 5.99822 18.7507C5.7992 18.7507 5.60833 18.6716 5.46759 18.5309C5.32686 18.3901 5.2478 18.1993 5.2478 18.0002C5.2478 17.8012 5.32686 17.6103 5.46759 17.4696L16.1879 6.75024H8.24822C8.04931 6.75024 7.85854 6.67123 7.71789 6.53057C7.57724 6.38992 7.49822 6.19916 7.49822 6.00024C7.49822 5.80133 7.57724 5.61057 7.71789 5.46991C7.85854 5.32926 8.04931 5.25024 8.24822 5.25024H17.9982C18.1971 5.25024 18.3879 5.32926 18.5286 5.46991C18.6692 5.61057 18.7482 5.80133 18.7482 6.00024Z" fill="white"/>
</svg>
