<svg width="28" height="28" viewBox="0 0 28 28" fill="none" xmlns="http://www.w3.org/2000/svg">
<path d="M15.3213 22.1794C14.5659 22.8441 13.4344 22.8441 12.679 22.1794L9.17659 19.0979C5.76483 16.096 0.00012207 18.218 0.00012207 22.462V25.9999C0.00012207 27.1044 0.895553 27.9999 2.00012 27.9999H26.0001C27.1047 27.9999 28.0001 27.1044 28.0001 25.9999V15.4476C28.0001 13.7267 25.971 12.8093 24.679 13.946L15.3213 22.1794Z" fill="#1A1A1A"/>
<path d="M12.6789 5.82043C13.4342 5.15582 14.5658 5.15582 15.3211 5.82043L18.8235 8.90202C22.2353 11.9039 28 9.78187 28 5.53789V2C28 0.89543 27.1046 0 26 0H2C0.895431 0 0 0.895431 0 2V12.5523C0 14.2732 2.02913 15.1906 3.32113 14.0539L12.6789 5.82043Z" fill="#1A1A1A"/>
</svg>
