<svg width="28" height="28" viewBox="0 0 28 28" fill="none" xmlns="http://www.w3.org/2000/svg">
<path d="M15.3213 22.1796C14.5659 22.8442 13.4344 22.8442 12.679 22.1796L9.17659 19.098C5.76483 16.0961 0.00012207 18.2181 0.00012207 22.4621V26C0.00012207 27.1046 0.895553 28 2.00012 28H26.0001C27.1047 28 28.0001 27.1046 28.0001 26V15.4477C28.0001 13.7268 25.971 12.8094 24.679 13.9461L15.3213 22.1796Z" fill="white"/>
<path d="M12.6789 5.82046C13.4342 5.15585 14.5658 5.15584 15.3211 5.82046L18.8235 8.90205C22.2353 11.9039 28 9.7819 28 5.53791V2.00003C28 0.895457 27.1046 2.67029e-05 26 2.67029e-05H2C0.895431 2.67029e-05 0 0.895457 0 2.00003V12.5523C0 14.2732 2.02913 15.1906 3.32113 14.0539L12.6789 5.82046Z" fill="white"/>
</svg>
