<svg width="91" height="15" viewBox="0 0 91 15" fill="none" xmlns="http://www.w3.org/2000/svg">
<g clip-path="url(#clip0_2041_171)">
<path d="M7.15381 1.20755C7.2819 0.899567 7.7182 0.899566 7.8463 1.20755L9.39586 4.93316C9.44987 5.063 9.57197 5.15171 9.71214 5.16295L13.7342 5.4854C14.0667 5.51206 14.2016 5.927 13.9482 6.144L10.8838 8.769C10.777 8.86048 10.7304 9.00402 10.763 9.14081L11.6992 13.0657C11.7766 13.3902 11.4237 13.6466 11.139 13.4727L7.69552 11.3695C7.57552 11.2962 7.42459 11.2962 7.30458 11.3695L3.8611 13.4727C3.57643 13.6466 3.22346 13.3902 3.30086 13.0657L4.23709 9.14081C4.26972 9.00402 4.22308 8.86048 4.11628 8.769L1.05186 6.144C0.798534 5.927 0.933356 5.51206 1.26585 5.4854L5.28796 5.16295C5.42813 5.15171 5.55023 5.063 5.60424 4.93316L7.15381 1.20755Z" fill="white"/>
<path d="M7.15381 1.20755C7.2819 0.899567 7.7182 0.899566 7.8463 1.20755L9.39586 4.93316C9.44987 5.063 9.57197 5.15171 9.71214 5.16295L13.7342 5.4854C14.0667 5.51206 14.2016 5.927 13.9482 6.144L10.8838 8.769C10.777 8.86048 10.7304 9.00402 10.763 9.14081L11.6992 13.0657C11.7766 13.3902 11.4237 13.6466 11.139 13.4727L7.69552 11.3695C7.57552 11.2962 7.42459 11.2962 7.30458 11.3695L3.8611 13.4727C3.57643 13.6466 3.22346 13.3902 3.30086 13.0657L4.23709 9.14081C4.26972 9.00402 4.22308 8.86048 4.11628 8.769L1.05186 6.144C0.798534 5.927 0.933356 5.51206 1.26585 5.4854L5.28796 5.16295C5.42813 5.15171 5.55023 5.063 5.60424 4.93316L7.15381 1.20755Z" fill="#FDB022"/>
</g>
<g clip-path="url(#clip1_2041_171)">
<path d="M26.1538 1.20755C26.2819 0.899567 26.7182 0.899566 26.8463 1.20755L28.3959 4.93316C28.4499 5.063 28.572 5.15171 28.7121 5.16295L32.7342 5.4854C33.0667 5.51206 33.2016 5.927 32.9482 6.144L29.8838 8.769C29.777 8.86048 29.7304 9.00402 29.763 9.14081L30.6992 13.0657C30.7766 13.3902 30.4237 13.6466 30.139 13.4727L26.6955 11.3695C26.5755 11.2962 26.4246 11.2962 26.3046 11.3695L22.8611 13.4727C22.5764 13.6466 22.2235 13.3902 22.3009 13.0657L23.2371 9.14081C23.2697 9.00402 23.2231 8.86048 23.1163 8.769L20.0519 6.144C19.7985 5.927 19.9334 5.51206 20.2659 5.4854L24.288 5.16295C24.4281 5.15171 24.5502 5.063 24.6042 4.93316L26.1538 1.20755Z" fill="white"/>
<path d="M26.1538 1.20755C26.2819 0.899567 26.7182 0.899566 26.8463 1.20755L28.3959 4.93316C28.4499 5.063 28.572 5.15171 28.7121 5.16295L32.7342 5.4854C33.0667 5.51206 33.2016 5.927 32.9482 6.144L29.8838 8.769C29.777 8.86048 29.7304 9.00402 29.763 9.14081L30.6992 13.0657C30.7766 13.3902 30.4237 13.6466 30.139 13.4727L26.6955 11.3695C26.5755 11.2962 26.4246 11.2962 26.3046 11.3695L22.8611 13.4727C22.5764 13.6466 22.2235 13.3902 22.3009 13.0657L23.2371 9.14081C23.2697 9.00402 23.2231 8.86048 23.1163 8.769L20.0519 6.144C19.7985 5.927 19.9334 5.51206 20.2659 5.4854L24.288 5.16295C24.4281 5.15171 24.5502 5.063 24.6042 4.93316L26.1538 1.20755Z" fill="#FDB022"/>
</g>
<g clip-path="url(#clip2_2041_171)">
<path d="M45.1538 1.20755C45.2819 0.899567 45.7182 0.899566 45.8463 1.20755L47.3959 4.93316C47.4499 5.063 47.572 5.15171 47.7121 5.16295L51.7342 5.4854C52.0667 5.51206 52.2016 5.927 51.9482 6.144L48.8838 8.769C48.777 8.86048 48.7304 9.00402 48.763 9.14081L49.6992 13.0657C49.7766 13.3902 49.4237 13.6466 49.139 13.4727L45.6955 11.3695C45.5755 11.2962 45.4246 11.2962 45.3046 11.3695L41.8611 13.4727C41.5764 13.6466 41.2235 13.3902 41.3009 13.0657L42.2371 9.14081C42.2697 9.00402 42.2231 8.86048 42.1163 8.769L39.0519 6.144C38.7985 5.927 38.9334 5.51206 39.2659 5.4854L43.288 5.16295C43.4281 5.15171 43.5502 5.063 43.6042 4.93316L45.1538 1.20755Z" fill="white"/>
<path d="M45.1538 1.20755C45.2819 0.899567 45.7182 0.899566 45.8463 1.20755L47.3959 4.93316C47.4499 5.063 47.572 5.15171 47.7121 5.16295L51.7342 5.4854C52.0667 5.51206 52.2016 5.927 51.9482 6.144L48.8838 8.769C48.777 8.86048 48.7304 9.00402 48.763 9.14081L49.6992 13.0657C49.7766 13.3902 49.4237 13.6466 49.139 13.4727L45.6955 11.3695C45.5755 11.2962 45.4246 11.2962 45.3046 11.3695L41.8611 13.4727C41.5764 13.6466 41.2235 13.3902 41.3009 13.0657L42.2371 9.14081C42.2697 9.00402 42.2231 8.86048 42.1163 8.769L39.0519 6.144C38.7985 5.927 38.9334 5.51206 39.2659 5.4854L43.288 5.16295C43.4281 5.15171 43.5502 5.063 43.6042 4.93316L45.1538 1.20755Z" fill="#FDB022"/>
</g>
<g clip-path="url(#clip3_2041_171)">
<path d="M64.1538 1.20755C64.2819 0.899567 64.7182 0.899566 64.8463 1.20755L66.3959 4.93316C66.4499 5.063 66.572 5.15171 66.7121 5.16295L70.7342 5.4854C71.0667 5.51206 71.2016 5.927 70.9482 6.144L67.8838 8.769C67.777 8.86048 67.7304 9.00402 67.763 9.14081L68.6992 13.0657C68.7766 13.3902 68.4237 13.6466 68.139 13.4727L64.6955 11.3695C64.5755 11.2962 64.4246 11.2962 64.3046 11.3695L60.8611 13.4727C60.5764 13.6466 60.2235 13.3902 60.3009 13.0657L61.2371 9.14081C61.2697 9.00402 61.2231 8.86048 61.1163 8.769L58.0519 6.144C57.7985 5.927 57.9334 5.51206 58.2659 5.4854L62.288 5.16295C62.4281 5.15171 62.5502 5.063 62.6042 4.93316L64.1538 1.20755Z" fill="white"/>
<path d="M64.1538 1.20755C64.2819 0.899567 64.7182 0.899566 64.8463 1.20755L66.3959 4.93316C66.4499 5.063 66.572 5.15171 66.7121 5.16295L70.7342 5.4854C71.0667 5.51206 71.2016 5.927 70.9482 6.144L67.8838 8.769C67.777 8.86048 67.7304 9.00402 67.763 9.14081L68.6992 13.0657C68.7766 13.3902 68.4237 13.6466 68.139 13.4727L64.6955 11.3695C64.5755 11.2962 64.4246 11.2962 64.3046 11.3695L60.8611 13.4727C60.5764 13.6466 60.2235 13.3902 60.3009 13.0657L61.2371 9.14081C61.2697 9.00402 61.2231 8.86048 61.1163 8.769L58.0519 6.144C57.7985 5.927 57.9334 5.51206 58.2659 5.4854L62.288 5.16295C62.4281 5.15171 62.5502 5.063 62.6042 4.93316L64.1538 1.20755Z" fill="#FDB022"/>
</g>
<path d="M83.1538 1.20755C83.2819 0.899567 83.7182 0.899566 83.8463 1.20755L85.3959 4.93316C85.4499 5.063 85.572 5.15171 85.7121 5.16295L89.7342 5.4854C90.0667 5.51206 90.2016 5.927 89.9482 6.144L86.8838 8.769C86.777 8.86048 86.7304 9.00402 86.763 9.14081L87.6992 13.0657C87.7766 13.3902 87.4237 13.6466 87.139 13.4727L83.6955 11.3695C83.5755 11.2962 83.4246 11.2962 83.3046 11.3695L79.8611 13.4727C79.5764 13.6466 79.2235 13.3902 79.3009 13.0657L80.2371 9.14081C80.2697 9.00402 80.2231 8.86048 80.1163 8.769L77.0519 6.144C76.7985 5.927 76.9334 5.51206 77.2659 5.4854L81.288 5.16295C81.4281 5.15171 81.5502 5.063 81.6042 4.93316L83.1538 1.20755Z" fill="#E8EAED"/>
<defs>
<clipPath id="clip0_2041_171">
<rect width="15" height="15" fill="white"/>
</clipPath>
<clipPath id="clip1_2041_171">
<rect width="15" height="15" fill="white" transform="translate(19)"/>
</clipPath>
<clipPath id="clip2_2041_171">
<rect width="15" height="15" fill="white" transform="translate(38)"/>
</clipPath>
<clipPath id="clip3_2041_171">
<rect width="15" height="15" fill="white" transform="translate(57)"/>
</clipPath>
</defs>
</svg>
