<svg width="104" height="104" viewBox="0 0 104 104" fill="none" xmlns="http://www.w3.org/2000/svg">
<g filter="url(#filter0_dddi_89_314)">
<circle cx="52" cy="52" r="40" fill="#3B6DFF"/>
<circle cx="52" cy="52" r="39.5" stroke="#86CDC4"/>
</g>
<path d="M57.5867 38.6667H46.4134C41.56 38.6667 38.6667 41.5601 38.6667 46.4134V57.5734C38.6667 62.4401 41.56 65.3334 46.4134 65.3334H57.5734C62.4267 65.3334 65.32 62.4401 65.32 57.5868V46.4134C65.3334 41.5601 62.44 38.6667 57.5867 38.6667ZM48.1467 58.5334C48.1467 58.9067 47.8534 59.2001 47.48 59.2001H43.76C43.3867 59.2001 43.0934 58.9067 43.0934 58.5334V52.3734C43.0934 51.5334 43.7734 50.8534 44.6134 50.8534H47.48C47.8534 50.8534 48.1467 51.1467 48.1467 51.5201V58.5334ZM54.52 58.5334C54.52 58.9067 54.2267 59.2001 53.8534 59.2001H50.1334C49.76 59.2001 49.4667 58.9067 49.4667 58.5334V46.3201C49.4667 45.4801 50.1467 44.8001 50.9867 44.8001H53.0134C53.8534 44.8001 54.5334 45.4801 54.5334 46.3201V58.5334H54.52ZM60.9067 58.5334C60.9067 58.9067 60.6134 59.2001 60.24 59.2001H56.52C56.1467 59.2001 55.8534 58.9067 55.8534 58.5334V53.8001C55.8534 53.4267 56.1467 53.1334 56.52 53.1334H59.3867C60.2267 53.1334 60.9067 53.8134 60.9067 54.6534V58.5334Z" fill="white"/>
<defs>
<filter id="filter0_dddi_89_314" x="0" y="0" width="104" height="104" filterUnits="userSpaceOnUse" color-interpolation-filters="sRGB">
<feFlood flood-opacity="0" result="BackgroundImageFix"/>
<feColorMatrix in="SourceAlpha" type="matrix" values="0 0 0 0 0 0 0 0 0 0 0 0 0 0 0 0 0 0 127 0" result="hardAlpha"/>
<feMorphology radius="6" operator="dilate" in="SourceAlpha" result="effect1_dropShadow_89_314"/>
<feOffset/>
<feComposite in2="hardAlpha" operator="out"/>
<feColorMatrix type="matrix" values="0 0 0 0 0.231373 0 0 0 0 0.427451 0 0 0 0 1 0 0 0 0.1 0"/>
<feBlend mode="normal" in2="BackgroundImageFix" result="effect1_dropShadow_89_314"/>
<feColorMatrix in="SourceAlpha" type="matrix" values="0 0 0 0 0 0 0 0 0 0 0 0 0 0 0 0 0 0 127 0" result="hardAlpha"/>
<feMorphology radius="12" operator="dilate" in="SourceAlpha" result="effect2_dropShadow_89_314"/>
<feOffset/>
<feComposite in2="hardAlpha" operator="out"/>
<feColorMatrix type="matrix" values="0 0 0 0 0.231373 0 0 0 0 0.427451 0 0 0 0 1 0 0 0 0.05 0"/>
<feBlend mode="normal" in2="effect1_dropShadow_89_314" result="effect2_dropShadow_89_314"/>
<feColorMatrix in="SourceAlpha" type="matrix" values="0 0 0 0 0 0 0 0 0 0 0 0 0 0 0 0 0 0 127 0" result="hardAlpha"/>
<feMorphology radius="2" operator="dilate" in="SourceAlpha" result="effect3_dropShadow_89_314"/>
<feOffset/>
<feComposite in2="hardAlpha" operator="out"/>
<feColorMatrix type="matrix" values="0 0 0 0 0.231373 0 0 0 0 0.427451 0 0 0 0 1 0 0 0 1 0"/>
<feBlend mode="normal" in2="effect2_dropShadow_89_314" result="effect3_dropShadow_89_314"/>
<feBlend mode="normal" in="SourceGraphic" in2="effect3_dropShadow_89_314" result="shape"/>
<feColorMatrix in="SourceAlpha" type="matrix" values="0 0 0 0 0 0 0 0 0 0 0 0 0 0 0 0 0 0 127 0" result="hardAlpha"/>
<feOffset dy="4"/>
<feGaussianBlur stdDeviation="6.25"/>
<feComposite in2="hardAlpha" operator="arithmetic" k2="-1" k3="1"/>
<feColorMatrix type="matrix" values="0 0 0 0 0.231373 0 0 0 0 0.427451 0 0 0 0 1 0 0 0 0.6 0"/>
<feBlend mode="normal" in2="shape" result="effect4_innerShadow_89_314"/>
</filter>
</defs>
</svg>
