<svg width="11" height="14" viewBox="0 0 11 14" fill="none" xmlns="http://www.w3.org/2000/svg">
<path d="M5.22062 0C3.83651 0.00157018 2.50954 0.552103 1.53082 1.53082C0.552103 2.50954 0.00157018 3.83651 0 5.22062C0 9.68781 4.74602 13.0616 4.94832 13.2028C5.02812 13.2587 5.12319 13.2887 5.22062 13.2887C5.31805 13.2887 5.41313 13.2587 5.49292 13.2028C5.69522 13.0616 10.4412 9.68781 10.4412 5.22062C10.4397 3.83651 9.88914 2.50954 8.91043 1.53082C7.93171 0.552103 6.60474 0.00157018 5.22062 0ZM5.22062 3.32221C5.59609 3.32221 5.96313 3.43355 6.27532 3.64215C6.58751 3.85075 6.83084 4.14724 6.97452 4.49413C7.11821 4.84102 7.1558 5.22273 7.08255 5.59098C7.0093 5.95924 6.8285 6.2975 6.563 6.563C6.2975 6.8285 5.95924 7.0093 5.59098 7.08255C5.22273 7.1558 4.84102 7.11821 4.49413 6.97452C4.14724 6.83084 3.85075 6.58751 3.64215 6.27532C3.43355 5.96313 3.32221 5.59609 3.32221 5.22062C3.32221 4.71713 3.52222 4.23427 3.87824 3.87824C4.23427 3.52222 4.71713 3.32221 5.22062 3.32221Z" fill="#3B6DFF"/>
</svg>
