<svg width="27" height="27" viewBox="0 0 27 27" fill="none" xmlns="http://www.w3.org/2000/svg">
<path d="M12.6667 0C5.68 0 0 5.68 0 12.6667C0 19.6533 5.68 25.3333 12.6667 25.3333C19.6533 25.3333 25.3333 19.6533 25.3333 12.6667C25.3333 5.68 19.6533 0 12.6667 0ZM12.6667 15.6667H8.66667C8.12 15.6667 7.66667 15.2133 7.66667 14.6667C7.66667 14.12 8.12 13.6667 8.66667 13.6667H12.6667C13.2133 13.6667 13.6667 14.12 13.6667 14.6667C13.6667 15.2133 13.2133 15.6667 12.6667 15.6667ZM16.6667 11.6667H8.66667C8.12 11.6667 7.66667 11.2133 7.66667 10.6667C7.66667 10.12 8.12 9.66667 8.66667 9.66667H16.6667C17.2133 9.66667 17.6667 10.12 17.6667 10.6667C17.6667 11.2133 17.2133 11.6667 16.6667 11.6667Z" fill="white"/>
<path d="M25.734 26.6648C25.494 26.6648 25.254 26.5715 25.0807 26.3981L22.6007 23.9181C22.2407 23.5581 22.2407 22.9715 22.6007 22.5981C22.9607 22.2381 23.5474 22.2381 23.9207 22.5981L26.4007 25.0781C26.7607 25.4381 26.7607 26.0248 26.4007 26.3981C26.214 26.5715 25.974 26.6648 25.734 26.6648Z" fill="white"/>
</svg>
