<svg width="14" height="13" viewBox="0 0 14 13" fill="none" xmlns="http://www.w3.org/2000/svg">
<path d="M6.23352 0.230989C6.36162 -0.0769959 6.79791 -0.0769964 6.92601 0.230988L8.47558 3.9566C8.52958 4.08644 8.65168 4.17515 8.79185 4.18639L12.814 4.50884C13.1465 4.53549 13.2813 4.95043 13.028 5.16743L9.96353 7.79244C9.85674 7.88392 9.8101 8.02746 9.84272 8.16424L10.779 12.0891C10.8564 12.4136 10.5034 12.67 10.2187 12.4962L6.77523 10.3929C6.65523 10.3196 6.5043 10.3196 6.38429 10.3929L2.94081 12.4962C2.65614 12.67 2.30317 12.4136 2.38057 12.0891L3.3168 8.16425C3.34943 8.02746 3.30279 7.88392 3.19599 7.79244L0.131572 5.16744C-0.121754 4.95043 0.0130675 4.53549 0.345563 4.50884L4.36767 4.18639C4.50784 4.17515 4.62995 4.08644 4.68395 3.9566L6.23352 0.230989Z" fill="#E8EAED"/>
</svg>
